# xmcd
#
# Track frame offsets:
#	150
#	19956
#	34897
#	53104
#	67479
#	85669
#	104056
#	118551
#	139867
#	156605
#	175113
#	189800
#	202881
#	221825
#	235182
#
# Disc length: 3319 seconds
#
# Revision: 0
# Processed by: cddbd v1.5.2PL0 Copyright (c) Steve Scherf et al.
# Submitted via: audiograbber 1.83.01
#
DISCID=dd0cf50f
DTITLE=Chartbuster Karaoke - Essential 4 Disk 20
DYEAR=1900
DGENRE=Karaoke
TTITLE0=Travis Tritt - Put Some Drive In Your Country
TTITLE1=Lorrie Morgan - Trainwreck Of Emotion
TTITLE2=Earl Thomas Conley - Love Out Loud
TTITLE3=Patty Loveless - Hurt Me Bad (In A Real Good Way)
TTITLE4=Paul Overstreet - Sowin' Love
TTITLE5=Dolly Parton - Silver and Gold
TTITLE6=Shenandoah - Church On Cumberland Road
TTITLE7=Lorrie Morgan - Something In Red
TTITLE8=Dwight Yoakam - Turn It On, Turn It Up, Turn Me Loose
TTITLE9=Pam Tillis - Maybe It Was Memphis
TTITLE10=Keith Whitley - I'm Over You
TTITLE11=Trisha Yearwood - Wrong Side Of Memphis
TTITLE12=Keith Whitley - It Ain't Nothin'
TTITLE13=Vince Gill - Liza Jane
TTITLE14=Suzy Bogguss - Outbound Plane
EXTD=
EXTT0=
EXTT1=
EXTT2=
EXTT3=
EXTT4=
EXTT5=
EXTT6=
EXTT7=
EXTT8=
EXTT9=
EXTT10=
EXTT11=
EXTT12=
EXTT13=
EXTT14=
PLAYORDER=
